<svg version="1.1" xmlns="http://www.w3.org/2000/svg" viewBox="0 0 199.453125 406.16796875" width="199.453125" height="406.16796875"><!-- svg-source:excalidraw --><metadata></metadata><defs><style class="style-fonts">
      </style></defs><g transform="translate(10 32.94921875) rotate(0 89.7265625 109.369140625)" stroke="none"><path fill="#1971c2" d="M -3.37,-8.19 Q -3.37,-8.19 4.24,-10.94 11.87,-13.68 18.01,-16.06 24.16,-18.45 31.92,-20.45 39.69,-22.46 46.29,-23.97 52.89,-25.48 59.46,-26.65 66.02,-27.83 72.52,-28.66 79.01,-29.49 85.40,-30.08 91.79,-30.67 97.47,-30.95 103.15,-31.24 108.52,-31.24 113.88,-31.24 118.90,-31.05 123.93,-30.87 128.71,-30.45 133.48,-30.02 140.70,-28.77 147.92,-27.52 154.01,-25.39 160.09,-23.26 164.49,-21.01 168.88,-18.77 172.54,-15.74 176.20,-12.72 179.47,-8.10 182.75,-3.48 185.03,1.75 187.32,6.99 188.94,13.57 190.57,20.15 191.35,26.39 192.12,32.63 192.34,38.59 192.56,44.54 191.06,52.79 189.56,61.03 186.49,68.02 183.42,75.01 179.75,80.20 176.08,85.40 171.79,90.21 167.50,95.02 161.42,100.61 155.34,106.20 149.16,111.24 142.97,116.29 137.31,120.53 131.64,124.78 127.12,128.06 122.60,131.34 118.53,134.26 114.46,137.18 110.00,140.13 105.54,143.09 101.81,145.46 98.07,147.84 93.79,150.45 89.51,153.06 85.60,155.60 81.70,158.13 79.89,162.35 78.09,166.57 77.32,171.48 76.56,176.38 76.10,181.13 75.65,185.88 75.50,191.22 75.36,196.56 75.24,202.47 75.13,208.39 74.85,213.23 74.57,218.08 74.36,223.26 74.16,228.45 74.20,232.90 74.23,237.34 74.24,239.51 74.25,241.68 73.85,244.10 73.46,246.51 72.31,248.68 71.16,250.84 69.39,252.52 67.61,254.20 65.39,255.23 63.17,256.26 60.73,256.52 58.30,256.79 55.91,256.26 53.52,255.74 51.42,254.47 49.32,253.21 47.74,251.35 46.16,249.48 45.25,247.21 44.34,244.93 44.21,242.49 44.08,240.05 44.73,237.69 45.39,235.33 46.76,233.30 48.14,231.28 50.09,229.80 52.04,228.31 54.35,227.53 56.67,226.75 59.12,226.75 61.57,226.75 63.89,227.53 66.21,228.32 68.16,229.80 70.11,231.28 71.48,233.31 72.85,235.33 73.51,237.69 74.16,240.05 74.03,242.49 73.89,244.94 72.99,247.21 72.08,249.49 70.50,251.35 68.91,253.22 66.81,254.48 64.72,255.74 62.33,256.26 59.94,256.79 57.50,256.52 55.07,256.26 52.85,255.23 50.63,254.20 48.85,252.52 47.07,250.83 45.93,248.67 44.78,246.51 44.39,244.09 43.99,241.68 43.99,241.68 43.99,241.68 44.00,239.51 44.01,237.34 44.11,232.75 44.22,228.16 44.46,223.77 44.70,219.38 44.97,214.85 45.24,210.33 45.39,205.73 45.55,201.14 45.72,196.83 45.89,192.53 46.07,187.78 46.25,183.03 46.84,177.97 47.43,172.91 48.37,167.56 49.31,162.21 51.00,156.78 52.68,151.35 54.66,147.58 56.64,143.81 60.22,140.07 63.79,136.34 68.31,133.51 72.84,130.68 76.88,128.45 80.93,126.22 86.00,123.29 91.07,120.36 95.15,117.78 99.23,115.19 103.29,112.46 107.35,109.73 111.76,106.70 116.17,103.67 121.37,99.78 126.57,95.89 132.11,91.22 137.64,86.54 142.82,81.54 148.00,76.54 151.45,72.79 154.90,69.03 157.53,65.63 160.16,62.23 162.09,58.27 164.02,54.32 165.08,49.53 166.14,44.75 166.11,39.79 166.08,34.83 165.62,29.84 165.17,24.85 163.65,18.33 162.14,11.80 159.97,7.10 157.79,2.40 154.27,-0.25 150.75,-2.91 146.52,-5.02 142.29,-7.12 136.66,-8.82 131.03,-10.51 126.82,-11.22 122.60,-11.92 117.94,-12.42 113.27,-12.91 108.38,-13.25 103.49,-13.59 98.32,-13.67 93.14,-13.74 87.03,-13.33 80.93,-12.92 74.83,-12.30 68.72,-11.68 62.50,-10.71 56.28,-9.74 50.12,-8.51 43.96,-7.27 36.96,-5.13 29.97,-2.98 24.02,-0.81 18.06,1.35 10.72,4.77 3.37,8.19 2.34,8.47 1.31,8.76 0.24,8.79 -0.81,8.82 -1.86,8.59 -2.90,8.37 -3.86,7.90 -4.82,7.43 -5.64,6.74 -6.46,6.06 -7.09,5.20 -7.72,4.33 -8.13,3.35 -8.54,2.36 -8.70,1.30 -8.85,0.25 -8.76,-0.81 -8.66,-1.87 -8.31,-2.88 -7.96,-3.89 -7.37,-4.79 -6.79,-5.68 -6.01,-6.41 -5.23,-7.14 -4.30,-7.67 -3.37,-8.19 -3.37,-8.19 L -3.37,-8.19 Z"></path></g><g transform="translate(56.64453125 350.73828125) rotate(0 17.642578125 18.20703125)" stroke="none"><path fill="#1971c2" d="M -4.83,-9.12 Q -4.83,-9.12 -0.64,-11.42 3.53,-13.72 9.16,-16.22 14.80,-18.72 21.09,-19.35 27.37,-19.98 32.15,-17.45 36.92,-14.91 40.36,-10.48 43.80,-6.05 45.46,-1.51 47.13,3.02 47.78,9.39 48.43,15.75 46.95,20.78 45.48,25.81 43.17,30.03 40.86,34.25 37.93,38.41 34.99,42.57 31.67,46.45 28.35,50.32 23.90,53.58 19.45,56.84 14.80,58.21 10.14,59.59 3.98,58.89 -2.17,58.19 -6.62,54.61 -11.07,51.03 -12.91,45.49 -14.76,39.95 -14.73,34.62 -14.70,29.29 -13.39,25.14 -12.08,20.99 -10.54,17.75 -9.00,14.52 -7.62,12.55 -6.23,10.58 -4.29,9.15 -2.34,7.73 -0.04,7.00 2.24,6.27 4.65,6.31 7.06,6.36 9.33,7.17 11.60,7.98 13.49,9.47 15.38,10.96 16.70,12.98 18.02,15.00 18.62,17.33 19.22,19.67 19.05,22.07 18.88,24.47 17.94,26.70 17.01,28.92 15.42,30.73 13.83,32.53 11.74,33.74 9.65,34.94 7.29,35.42 4.93,35.90 2.54,35.59 0.15,35.29 -2.01,34.24 -4.18,33.19 -5.90,31.50 -7.62,29.81 -8.71,27.66 -9.80,25.51 -10.15,23.13 -10.49,20.74 -10.06,18.37 -9.63,16.00 -8.46,13.89 -7.29,11.78 -5.51,10.16 -3.74,8.53 -1.53,7.56 0.66,6.59 3.06,6.37 5.46,6.15 7.81,6.72 10.15,7.28 12.19,8.56 14.24,9.83 15.76,11.70 17.29,13.56 18.14,15.82 18.99,18.07 19.08,20.48 19.17,22.89 18.48,25.20 17.79,27.51 17.79,27.51 17.79,27.50 15.97,31.99 14.14,36.48 12.83,31.98 11.53,27.48 14.78,23.50 18.03,19.51 20.28,15.49 22.52,11.46 22.84,7.02 23.16,2.59 18.24,3.69 13.33,4.80 9.08,6.96 4.83,9.12 3.66,9.57 2.50,10.01 1.27,10.17 0.03,10.32 -1.20,10.18 -2.43,10.03 -3.60,9.59 -4.76,9.16 -5.79,8.45 -6.82,7.75 -7.64,6.82 -8.47,5.89 -9.06,4.79 -9.64,3.69 -9.94,2.48 -10.24,1.27 -10.25,0.03 -10.25,-1.20 -9.96,-2.41 -9.66,-3.62 -9.09,-4.73 -8.51,-5.83 -7.69,-6.77 -6.87,-7.70 -5.85,-8.41 -4.82,-9.12 -4.83,-9.12 L -4.83,-9.12 Z"></path></g></svg>